# xmcd CD database file generated by LOLA_Freedb v0.9beta0
# 
# Track frame offsets:
#      182
#      11367
#      20575
#      29462
#      39062
#      47132
#      58007
#      67070
#      77297
#      87207
#      95972
#      104445
#      113020
#      122757
#      132777
#      143732
#      157250
#      167282
#      176982
#      189765
# 
# Disc length: 2648 seconds
# 
# Revision: 5 
# Processed by: cddbd v1.5.1PL0 Copyright (c) Steve Scherf et al.
# Submitted via: LOLA_Freedb v0.9beta0
# 
DISCID=030a5614
DTITLE=Elvis 2000 - Best Of The King - Jailhouse Rock-Side
DYEAR=1900
DGENRE=70er Jahre
TTITLE0=Elvis 2000 - Jailhouse Rock
TTITLE1=Don't Be Cruel
TTITLE2=All Shook Up
TTITLE3=Return To Sender
TTITLE4=(Let Me Be Your) Teddy Bear
TTITLE5=Good Luck Charm
TTITLE6=Blue Sued Shoes
TTITLE7=Hound Dog
TTITLE8=My Baby Left Me
TTITLE9=That's All Right
TTITLE10=(You're So Square) My Baby Don't Care
TTITLE11=Hard Headed Woman
TTITLE12=Lawdy, Miss Clawdy
TTITLE13=Good Rockin' Tonight
TTITLE14=Mystery Train
TTITLE15=Such A Night
TTITLE16=A Big Hunk O'Love
TTITLE17=King Creole
TTITLE18=Burning Love
TTITLE19=Tutti Frutti
EXTD=
EXTT0=
EXTT1=
EXTT2=
EXTT3=
EXTT4=
EXTT5=
EXTT6=
EXTT7=
EXTT8=
EXTT9=
EXTT10=
EXTT11=
EXTT12=
EXTT13=
EXTT14=
EXTT15=
EXTT16=
EXTT17=
EXTT18=
EXTT19=
PLAYORDER=
